# xmcd
#
# Track frame offsets: 
#        150
#        18357
#        42600
#        62615
#
# Disc length: 1158 seconds
#
# Revision: 1
# Processed by: cddbd v1.5.2PL0 Copyright (c) Steve Scherf et al.
# Submitted via: ExactAudioCopy v0.99pb3
#
DISCID=2e048404
DTITLE=Drizabone - Brightest Star [CD1)
DYEAR=1994
DGENRE=R&B
TTITLE0=Brightest Star (Radio Edit)
TTITLE1=Brightest Star (Swingbone Mix)
TTITLE2=Conspiracy
TTITLE3=Brightest Star (Instrumental Remix)
EXTD=
EXTT0=
EXTT1=
EXTT2=
EXTT3=
PLAYORDER=
